<?xml version="1.0" encoding="utf-8"?><svg viewBox="0 0 66 21" xmlns="http://www.w3.org/2000/svg" xmlns:xlink="http://www.w3.org/1999/xlink"><style>:root>svg{display:none}:root>svg:target{display:block}</style><svg fill="none" viewBox="0 0 66 21" id="logo" xmlns="http://www.w3.org/2000/svg"><path d="M11.32 4.333l-5.66-.519L7.406 5.66v10.034l-3.493-.311V3.669L0 3.317V0l11.32 1.037v3.296zm12.307 12.832L20.029 5.742l-3.597 10.78-3.808-.352 5.175-14.553.379.041c1.2.394 2.482.705 3.871.933.126.021.274.042.4.063l4.986 14.884-3.808-.373zm13.065-3.545l-4.04-.352 1.747 1.845v3.047l-3.492-.311v-7.96l5.764.518c1.073.103 1.852-.664 1.852-1.762 0-1.1-.779-2.011-1.852-2.094l-5.764-.518V2.819l5.764.519c3.009.27 5.344 2.777 5.344 5.638.021 2.84-2.314 4.913-5.323 4.644zm12.75 5.887l-3.492-.31V4.166l3.492.31v15.03zm12.813 1.161l-2.882-5.203-3.388-.311 1.747 1.845v3.255l-3.493-.311v-7.94l6.102.56c.967.083 1.746-.684 1.746-1.783 0-1.099-.779-2.011-1.747-2.094l-6.1-.56V4.913l6.1.56c2.904.27 5.24 2.778 5.24 5.618 0 1.845-1.137 3.42-2.82 4.104L66 21l-3.745-.332z" fill="#fff"/></svg></svg>